<mxfile host="app.diagrams.net" modified="2024-05-14T13:06:49.914Z" agent="Mozilla/5.0 (Macintosh; Intel Mac OS X 10_15_7) AppleWebKit/537.36 (KHTML, like Gecko) Chrome/124.0.0.0 Safari/537.36" version="24.4.0" etag="Zu7PRurwVJfh6ycB26Ev" type="github">
  <diagram name="第 1 页" id="g4fcZUgbvQUZ5ZhPu1T4">
    <mxGraphModel>
      <root>
        <mxCell id="0" />
        <mxCell id="1" parent="0" />
      </root>
    </mxGraphModel>
  </diagram>
</mxfile>
